<svg version="1.1" id="Layer_1" xmlns="http://www.w3.org/2000/svg" xmlns:xlink="http://www.w3.org/1999/xlink" x="0px" y="0px"
	 width="100%" viewBox="0 0 499 499" enable-background="new 0 0 499 499" xml:space="preserve">
<path fill="#000000" opacity="1.000000" stroke="none" 
	d="
M455.000000,500.000000 
	C303.333374,500.000000 152.166733,500.000000 1.000081,500.000000 
	C1.000054,333.666748 1.000054,167.333481 1.000027,1.000170 
	C167.333221,1.000114 333.666443,1.000114 499.999756,1.000057 
	C499.999817,167.333176 499.999817,333.666351 499.999908,499.999756 
	C485.166656,500.000000 470.333344,500.000000 455.000000,500.000000 
M340.024536,270.980255 
	C340.024536,270.980255 339.934235,270.967865 339.881317,271.604218 
	C340.257935,272.090729 340.634521,272.577271 340.998566,272.992004 
	C340.998566,272.992004 340.926788,273.004486 341.233734,273.625031 
	C344.438110,277.915894 349.125092,278.625275 354.785126,279.015137 
	C355.852783,278.979797 356.920441,278.944458 358.724487,278.923676 
	C360.145325,278.561523 361.566193,278.199371 363.677094,277.823425 
	C365.219879,276.893341 366.762665,275.963226 368.741425,274.792999 
	C369.171143,274.295746 369.600861,273.798462 370.560150,272.831940 
	C372.644257,269.986908 374.728333,267.141876 376.723572,265.074799 
	C376.850769,266.371582 376.977966,267.668396 377.043732,269.735992 
	C378.574463,276.758331 381.015900,279.581299 387.010498,278.883728 
	C390.984894,278.421265 394.810547,276.103943 398.505127,274.227692 
	C399.405090,273.770660 399.527618,271.782745 400.007599,270.498718 
	C398.600952,270.258423 397.194336,270.018127 394.991394,269.840912 
	C394.331879,268.404938 393.136383,266.981476 393.102478,265.530884 
	C392.923523,257.869446 393.268585,250.191895 392.963074,242.538635 
	C392.778290,237.910065 394.738098,236.935043 398.664825,237.918427 
	C399.793152,238.200974 400.894012,238.593338 402.481018,239.442474 
	C409.150665,251.402191 415.820312,263.361908 422.672455,276.084900 
	C421.413849,280.020020 420.155212,283.955170 418.958466,287.893311 
	C418.958466,287.893311 418.941467,287.833679 418.275787,287.579773 
	C417.453491,286.404388 416.631165,285.228973 416.137390,283.387939 
	C416.452606,281.251251 416.767822,279.114594 417.083038,276.977905 
	C415.060974,276.970612 413.038910,276.953735 411.016907,276.961548 
	C410.364197,276.964050 409.705811,276.988007 409.060181,277.076477 
	C405.376740,277.581177 403.866516,279.596283 404.614258,283.320404 
	C405.634521,288.401703 408.557495,291.701721 413.625061,292.812225 
	C418.878632,293.963531 423.241791,291.746796 425.311798,287.243652 
	C428.752075,279.759674 431.249115,271.842072 434.508484,263.495422 
	C435.866699,259.331909 437.224915,255.168396 438.821991,250.817719 
	C438.941498,250.648560 439.013031,250.461090 439.422577,249.637207 
	C441.685638,245.661255 443.774872,241.571457 446.276215,237.751556 
	C447.802856,235.420242 448.087433,233.290573 445.179535,232.895691 
	C439.580444,232.135361 433.763519,231.376389 428.022156,235.278152 
	C429.244507,236.195190 430.072388,236.816284 431.230499,237.841629 
	C431.534943,238.263153 431.839355,238.684677 432.317413,239.897079 
	C433.079803,245.717560 434.362152,251.606888 429.944397,256.077332 
	C427.490753,251.599762 424.950928,247.166046 422.636597,242.617599 
	C421.951782,241.271683 421.323578,239.454559 421.667145,238.107895 
	C422.864166,233.415833 422.274536,232.478638 417.300201,232.827362 
	C412.881561,233.137100 408.471802,233.573853 403.548126,233.422760 
	C400.089020,232.895691 396.629944,232.368622 393.077209,231.011124 
	C392.913910,222.586761 391.481659,221.567200 382.917816,222.785156 
	C380.400360,223.143204 377.729370,222.421494 374.583466,222.484253 
	C374.252197,223.201752 373.438751,224.282303 373.663696,224.581039 
	C376.136566,227.865631 377.328461,231.129120 374.600128,234.910385 
	C374.476562,235.081619 375.934814,236.394196 376.842743,238.074188 
	C376.888885,246.036240 376.935028,253.998276 376.352051,261.399902 
	C376.197205,259.595825 375.929962,257.793274 375.904968,255.987396 
	C375.678253,239.597198 368.736023,233.090271 352.333344,233.950378 
	C344.980011,234.335968 338.863831,238.452744 337.310120,245.610687 
	C336.099945,251.185913 336.530823,257.117340 336.223969,263.513092 
	C336.634583,264.657623 337.045197,265.802124 337.604065,267.645508 
	C338.069244,268.452515 338.534393,269.259521 339.016418,269.989716 
	C339.016418,269.989716 338.939606,269.972778 339.098083,270.508240 
	C339.402802,270.695679 339.707489,270.883118 340.024536,270.980255 
M78.862740,224.901321 
	C80.257278,224.883850 81.651817,224.866379 83.178680,224.928970 
	C83.178680,224.928970 83.333099,224.920227 83.564697,225.538025 
	C85.094635,228.221451 86.778419,230.831543 88.103714,233.612488 
	C89.087265,235.676346 89.400192,238.064407 90.418396,240.105194 
	C90.919128,241.108810 92.341988,241.652359 93.347557,242.404099 
	C93.870438,241.608978 94.393326,240.813873 94.925293,239.101517 
	C95.731483,234.588699 96.703629,230.095673 97.245491,225.551331 
	C97.414032,224.137878 96.417114,222.585449 95.456154,221.054245 
	C95.456154,221.054245 94.961388,221.122086 94.031502,221.047134 
	C81.710159,221.060944 69.388809,221.074753 56.516369,221.183105 
	C56.331436,222.471756 56.146507,223.760422 56.514297,225.523621 
	C57.722198,227.441422 59.925720,229.333527 59.976013,231.281219 
	C60.296436,243.690720 60.250919,256.114471 60.021797,268.527893 
	C59.989243,270.291565 58.306122,272.025085 57.385971,273.772034 
	C56.814407,274.857147 56.240993,275.941284 55.668400,277.025879 
	C56.757057,277.553711 57.845711,278.081573 59.868145,278.763092 
	C65.610092,278.753113 71.352036,278.743134 77.712837,278.767670 
	C79.212105,278.427917 81.925026,279.159943 79.828796,275.339844 
	C76.227074,273.187347 75.665962,269.849030 75.976158,266.018250 
	C76.188789,263.392456 76.223717,260.715027 75.968300,258.096741 
	C75.522209,253.523911 77.404091,251.214218 81.976753,251.033691 
	C81.976753,251.033691 81.904770,251.048737 81.866386,251.856934 
	C82.617783,254.549301 83.173042,257.319794 84.201462,259.901825 
	C84.733559,261.237762 86.104691,262.239563 87.096748,263.392303 
	C87.806557,261.936157 89.063545,260.501770 89.122482,259.019745 
	C89.292107,254.754974 88.977745,250.470963 88.876328,245.599945 
	C88.655701,245.060471 88.435074,244.520981 87.903175,243.319260 
	C85.713654,242.776993 83.504501,241.751984 81.340607,241.839981 
	C79.495750,241.914993 77.702950,243.269943 75.924652,243.118134 
	C75.970436,238.073807 76.016228,233.029465 76.407722,227.458359 
	C76.949173,226.570816 77.490623,225.683258 78.862740,224.901321 
M316.998749,222.998596 
	C316.998749,222.998596 316.991516,222.918396 316.254700,222.886215 
	C315.707245,223.433548 314.822540,223.897598 314.663666,224.540894 
	C312.738342,232.337479 310.919983,240.160492 308.603424,248.354340 
	C308.063538,248.584854 307.523651,248.815369 306.860535,248.304581 
	C303.687439,240.655258 300.677856,232.930801 297.222687,225.411087 
	C296.391388,223.601898 294.193787,221.413712 292.431885,221.228088 
	C287.185699,220.675400 281.822540,220.747742 276.547028,221.139999 
	C273.375244,221.375839 271.690399,223.087540 275.727783,226.356094 
	C276.151794,227.877747 276.972687,229.408386 276.938507,230.919678 
	C276.590729,246.277267 277.354706,261.733551 273.596527,277.472778 
	C279.807220,277.852386 286.016113,278.275848 292.231903,278.532928 
	C292.759430,278.554779 293.332947,277.465576 293.700287,276.260803 
	C293.326996,275.724060 293.066925,274.884308 292.563354,274.696167 
	C285.335083,271.995209 283.713745,265.795563 283.152161,259.202698 
	C282.523651,251.823807 282.364532,244.404922 282.566193,237.426849 
	C288.341095,250.239075 294.123016,263.048126 299.886078,275.865692 
	C301.331818,279.081085 303.171326,279.918182 306.035217,276.264832 
	C308.957184,265.841003 311.879181,255.417160 314.801178,244.993317 
	C315.962189,249.863297 316.008087,254.482010 315.950897,259.099457 
	C315.874420,265.277008 317.776245,272.065552 310.862579,276.238831 
	C310.714600,276.328156 310.830536,276.854767 311.323517,277.775116 
	C319.258026,278.095978 327.192566,278.416840 335.691925,278.654175 
	C335.739166,277.214142 336.274200,274.744904 335.755463,274.499054 
	C332.046143,272.740997 332.332916,269.590027 332.334503,266.421814 
	C332.339874,255.637604 332.307556,244.853363 332.321381,234.069183 
	C332.325531,230.822983 331.608704,227.324326 335.663696,225.518127 
	C336.244598,225.259399 336.455841,223.489105 336.278076,222.521225 
	C336.199463,222.093216 334.720825,221.668579 333.881317,221.675461 
	C328.586029,221.718979 323.291748,221.884125 317.621674,221.765457 
	C317.387299,222.178894 317.152924,222.592331 316.998749,222.998596 
M164.972641,237.979965 
	C164.972641,237.979965 165.006271,238.057419 165.669052,237.891586 
	C168.758835,235.520020 168.179749,233.472824 164.632141,232.983215 
	C160.547623,232.419495 156.310898,232.380890 152.202484,232.770386 
	C149.453537,233.030991 148.632370,235.240997 150.551819,237.494583 
	C154.515915,242.148697 154.218933,244.009384 147.540344,247.487198 
	C145.899704,243.509491 144.485718,239.493118 142.558914,235.740036 
	C141.914871,234.485550 139.961823,233.159317 138.604797,233.156815 
	C134.828934,233.149918 131.051819,233.820465 126.488449,234.125961 
	C125.507385,233.983292 124.520958,233.870102 123.546249,233.692505 
	C120.420464,233.123001 119.617943,234.938110 121.073135,237.027145 
	C125.385658,243.218063 130.089615,249.136322 134.906433,255.810760 
	C134.624344,257.757477 135.013763,260.264465 133.940384,261.550964 
	C129.940659,266.344727 125.460739,270.737854 120.512199,275.215851 
	C120.295532,275.201691 120.078857,275.187531 119.338776,274.630402 
	C118.542091,272.771637 117.143250,270.940308 117.057098,269.049164 
	C116.748978,262.285156 116.978424,255.498779 116.822289,248.725067 
	C116.716614,244.140274 116.305367,239.562531 115.617722,234.324768 
	C110.412743,233.884521 105.207756,233.444290 99.399033,233.179260 
	C99.043625,234.426086 98.261139,235.730209 98.419220,236.908127 
	C98.779488,239.592529 100.059509,242.199738 100.148422,244.865570 
	C100.407860,252.644089 100.423065,260.440887 100.178474,268.219360 
	C100.112442,270.319519 99.086784,272.567627 97.951630,274.408722 
	C96.671272,276.485291 96.006577,277.918488 99.891327,278.895172 
	C106.694344,278.666412 113.497368,278.437653 120.928207,278.412079 
	C121.575584,278.527191 122.222961,278.642273 123.818977,278.865265 
	C128.271255,278.910156 132.734238,279.144867 137.169891,278.894745 
	C138.679062,278.809631 140.119370,277.503418 141.386292,276.167938 
	C137.772903,273.201080 135.472107,269.823822 138.404877,264.688263 
	C139.580246,265.157440 140.755600,265.626617 142.144852,266.762421 
	C143.313095,270.121094 144.295105,273.564392 145.760025,276.788269 
	C146.215408,277.790405 147.979507,278.197876 150.061661,278.917206 
	C161.326157,278.906830 172.590637,278.896454 184.455338,278.761505 
	C184.959061,278.164764 185.462799,277.568054 185.812531,276.305634 
	C185.188705,275.554474 184.705338,274.380249 183.918793,274.119080 
	C177.602570,272.021759 176.024399,266.735992 175.471344,261.141571 
	C174.718994,253.530991 174.524460,245.865250 174.735153,238.355347 
	C176.057159,239.808670 177.379166,241.262009 178.341339,243.405838 
	C183.053299,254.561447 187.633331,265.776123 192.580673,276.826355 
	C193.662689,279.243103 196.076508,279.960022 198.292816,276.319916 
	C201.068146,266.041412 203.843491,255.762894 206.618820,245.484390 
	C207.091873,245.562195 207.564941,245.640015 208.037994,245.717819 
	C208.037994,251.952988 207.872849,258.194000 208.092590,264.421417 
	C208.255249,269.031372 208.087189,273.303223 203.244385,276.296753 
	C203.926682,277.118042 204.608978,277.939301 206.187744,278.801697 
	C212.657761,278.856171 219.128967,278.988678 225.596664,278.890564 
	C226.715027,278.873596 228.379761,278.127533 228.762222,277.262756 
	C229.106049,276.485382 228.286346,274.329987 227.544876,274.081726 
	C223.840897,272.841614 224.278534,269.956055 224.271362,267.140198 
	C224.245987,257.184814 224.206146,247.229446 224.865479,237.217468 
	C228.917007,237.942368 231.471085,240.312912 233.388443,243.967804 
	C239.059769,254.778625 244.998215,265.449310 250.777969,276.966217 
	C250.438171,279.070282 250.564636,281.421387 249.619690,283.204803 
	C248.774292,284.800293 246.747620,285.769897 245.242126,287.015625 
	C245.155914,285.271423 245.000336,283.527069 245.004333,281.783081 
	C245.007858,280.249756 245.189987,278.716827 245.293198,277.183746 
	C243.915344,277.191132 242.537476,277.198486 240.569427,277.302734 
	C240.040543,277.576569 239.511673,277.850403 238.168808,278.047424 
	C232.589706,278.161652 231.489014,279.739990 233.038742,284.974915 
	C234.440109,289.708710 237.939270,291.826172 242.369171,292.824585 
	C247.295242,293.934845 251.160782,291.615509 253.173294,287.631134 
	C256.195190,281.648346 258.266571,275.185486 260.984528,268.242096 
	C262.940369,262.490051 264.896179,256.738007 267.226227,250.392593 
	C269.542450,246.206345 271.632294,241.871719 274.247772,237.881638 
	C276.272095,234.793381 275.671234,233.104568 272.240479,232.780289 
	C267.952209,232.374939 263.601837,232.232468 259.304840,232.465698 
	C256.858276,232.598465 254.498901,233.723511 257.668945,237.311279 
	C261.889038,240.965164 262.452667,249.848160 258.416626,256.767792 
	C255.141556,250.239334 252.072998,244.122528 249.591934,237.810516 
	C249.997070,236.546738 250.881973,235.170059 250.621460,234.062897 
	C250.472977,233.431854 248.462494,232.929977 247.277847,232.901886 
	C239.609482,232.720078 231.937622,232.684723 224.343826,231.852753 
	C225.220978,229.940948 226.051849,228.005936 226.993225,226.126297 
	C227.529846,225.054871 228.246826,224.073776 228.882568,223.052002 
	C227.721176,222.369797 226.598206,221.192886 225.391113,221.099152 
	C221.921280,220.829681 218.417450,220.993164 214.926971,220.995651 
	C207.482986,221.000977 207.035980,221.491135 205.448563,228.784760 
	C204.058746,235.170410 202.374802,241.492050 200.820770,247.841965 
	C200.285080,247.892761 199.749390,247.943542 199.213699,247.994339 
	C196.974197,242.942368 194.730957,237.892059 192.495926,232.838120 
	C186.614563,219.538879 189.156784,220.897964 173.159729,221.037018 
	C171.693970,221.026474 170.157227,220.737640 168.783478,221.087936 
	C167.544876,221.403778 166.484711,222.419495 165.345856,223.126541 
	C166.188385,224.136185 167.030899,225.145828 168.393906,226.796570 
	C168.610580,230.869278 168.827255,234.942001 168.755814,239.605072 
	C168.214127,250.077347 167.672455,260.549622 166.538574,271.264709 
	C165.832565,271.087860 164.787018,271.148376 164.472183,270.698059 
	C160.596268,265.153839 156.731445,259.595093 153.133774,253.870407 
	C152.595245,253.013474 153.089340,251.079391 153.725998,250.014435 
	C154.636475,248.491531 156.118729,247.310471 157.839890,245.724625 
	C158.563187,244.907867 159.286499,244.091110 160.536591,242.872131 
	C161.452240,241.917862 162.367889,240.963577 163.598938,239.885269 
	C163.798264,239.754974 163.926865,239.574341 164.429184,238.946579 
	C164.636475,238.613922 164.843765,238.281281 164.972641,237.979965 
M413.832123,313.076263 
	C415.924713,313.328125 418.039001,313.861023 420.099854,313.701813 
	C420.999207,313.632324 421.789032,312.144897 422.628601,311.301422 
	C421.708618,310.550507 420.875763,309.343903 419.849701,309.147614 
	C417.959198,308.786041 415.955139,309.018036 413.913849,308.279083 
	C411.296661,302.860870 408.968323,301.942627 402.159271,303.919800 
	C398.408691,303.703613 394.658081,303.487427 390.196045,303.279297 
	C389.486237,303.245087 388.776398,303.210876 387.307281,303.033051 
	C382.328003,302.884399 377.319458,302.673004 375.411072,308.836121 
	C375.381714,308.930908 375.118652,308.953369 374.999695,308.367218 
	C375.332916,305.564362 374.731384,302.928650 371.447998,303.204193 
	C370.125488,303.315186 368.999725,305.770905 367.336212,307.616730 
	C366.598938,309.776520 365.622986,311.896576 365.252991,314.117554 
	C365.122192,314.902618 366.509583,316.750488 367.137268,316.720490 
	C371.155670,316.528320 375.155487,315.948425 379.766541,316.010437 
	C386.830597,318.351501 389.601166,316.481720 390.572723,309.590668 
	C390.905182,310.699219 390.970032,312.013611 391.629395,312.870728 
	C392.776520,314.361908 394.290527,315.570862 395.650726,316.898132 
	C396.329010,315.231812 396.908936,313.515442 397.721893,311.917633 
	C398.223511,310.931641 399.080261,310.126312 399.756622,310.003815 
	C400.037659,313.665375 401.705841,316.260437 405.511719,316.860809 
	C408.832092,317.384613 411.737305,316.733734 413.832123,313.076263 
M438.266632,303.334381 
	C437.862366,303.258606 437.458069,303.182800 436.124969,303.031433 
	C433.984406,303.009949 431.834412,303.108765 429.705261,302.941711 
	C425.402344,302.604065 423.602753,304.558563 423.952698,308.771118 
	C424.061584,310.082336 423.728729,311.484497 424.079041,312.707245 
	C424.490692,314.144104 425.141205,316.121582 426.222839,316.567444 
	C427.110962,316.933563 428.808411,315.448029 430.093536,314.692108 
	C430.730988,314.317200 431.247925,313.737335 431.567169,313.465179 
	C433.648529,314.733093 435.362915,315.777435 437.779327,316.795227 
	C438.480438,316.753815 439.181580,316.712402 440.668213,316.886810 
	C443.616272,316.860138 446.841156,317.591736 449.451019,316.638824 
	C453.983765,314.983765 449.476044,311.491180 450.239044,308.905273 
	C450.285950,308.746368 450.316650,308.579346 450.386841,308.431183 
	C452.885925,303.156708 449.724823,302.815125 445.775299,303.106812 
	C443.473511,303.276825 441.166199,303.372375 438.266632,303.334381 
M102.043167,223.244537 
	C105.529778,227.542084 109.703957,228.600342 113.038284,225.840256 
	C116.060608,223.338440 117.043396,220.100815 115.067871,216.559738 
	C113.081429,212.999115 109.675812,212.109741 106.081322,213.453644 
	C101.965759,214.992340 100.260490,218.145081 102.043167,223.244537 
M428.508759,232.551056 
	C428.508759,232.551056 428.540955,232.528290 428.508759,232.551056 
z"/>
<path fill="#2C2C2C" opacity="1.000000" stroke="none" 
	d="
M149.144485,278.877563 
	C147.979507,278.197876 146.215408,277.790405 145.760025,276.788269 
	C144.295105,273.564392 143.313095,270.121094 142.121155,266.135010 
	C141.441986,260.739746 139.472946,256.918610 134.640518,255.161194 
	C130.089615,249.136322 125.385658,243.218063 121.073135,237.027145 
	C119.617943,234.938110 120.420464,233.123001 123.546249,233.692505 
	C124.520958,233.870102 125.507385,233.983292 127.260330,234.236801 
	C135.001801,233.837845 139.538406,235.826218 143.180069,242.945358 
	C148.486710,253.319366 155.977951,262.579529 162.594528,272.275848 
	C163.574631,273.712158 164.865341,274.936523 166.618195,276.957458 
	C167.657547,274.785583 168.325851,273.389038 169.145187,271.625580 
	C169.547180,269.804718 169.907654,268.359985 170.030838,266.895325 
	C170.690552,259.051575 171.291092,251.202896 171.925507,243.769226 
	C172.868759,251.517593 173.629959,258.879181 174.779816,266.179596 
	C175.764618,272.432098 179.628525,276.077972 185.966537,276.971313 
	C185.462799,277.568054 184.959061,278.164764 183.790695,278.651184 
	C171.798859,278.653137 160.471680,278.765350 149.144485,278.877563 
z"/>
<path fill="#2C2C2C" opacity="1.000000" stroke="none" 
	d="
M335.127075,278.737671 
	C327.192566,278.416840 319.258026,278.095978 311.438629,277.342041 
	C316.403748,275.960693 318.267365,273.150482 318.109863,268.115356 
	C317.788605,257.846924 318.119659,247.558838 317.855774,237.287247 
	C317.804016,235.272522 316.277710,233.295685 315.526367,230.867813 
	C316.078003,227.928955 316.534760,225.423676 316.991516,222.918396 
	C316.991516,222.918396 316.998749,222.998596 317.210388,222.911835 
	C317.591522,222.769836 317.761017,222.714569 318.398010,222.721924 
	C323.567108,222.784515 328.268707,222.784515 333.131744,222.784515 
	C331.996521,225.679001 330.754242,227.423386 330.707245,229.199448 
	C330.421631,239.979416 330.177429,250.771286 330.395172,261.549561 
	C330.516693,267.563812 329.234589,274.211304 335.127075,278.737671 
z"/>
<path fill="#2C2C2C" opacity="1.000000" stroke="none" 
	d="
M376.656311,237.175171 
	C375.934814,236.394196 374.476562,235.081619 374.600128,234.910385 
	C377.328461,231.129120 376.136566,227.865631 373.663696,224.581039 
	C373.438751,224.282303 374.252197,223.201752 375.118042,222.585175 
	C378.693726,223.116272 381.724609,223.786133 384.778534,223.916229 
	C388.635498,224.080521 391.097504,225.306213 391.277100,229.614716 
	C391.309052,230.381973 392.509796,231.100525 393.170837,231.841553 
	C396.629944,232.368622 400.089020,232.895691 403.381500,233.722931 
	C400.716675,234.617630 398.218445,235.212143 395.344421,235.841873 
	C393.766174,237.155502 391.532806,238.425781 391.522675,239.713562 
	C391.432678,251.138016 391.736420,262.565552 391.948761,273.997009 
	C391.973572,274.001831 391.984863,273.953613 391.932068,274.083954 
	C391.819336,274.497314 391.859131,274.768585 391.763763,275.259918 
	C385.405060,278.902100 381.710907,277.107971 378.135742,268.530945 
	C378.130524,259.397095 378.227783,250.730286 378.100677,242.066772 
	C378.076630,240.429520 377.160706,238.805374 376.656311,237.175171 
z"/>
<path fill="#2C2C2C" opacity="1.000000" stroke="none" 
	d="
M205.291290,278.760590 
	C204.608978,277.939301 203.926682,277.118042 203.822784,276.073425 
	C209.016800,275.721375 210.747742,273.237762 210.664215,268.765991 
	C210.521454,261.121948 210.914734,253.461365 210.580383,245.829742 
	C210.359421,240.786102 209.191879,235.789276 208.578476,230.755600 
	C208.183884,227.517685 208.106522,223.867523 212.251602,223.291519 
	C216.414078,222.713104 220.719604,223.164337 224.213303,223.164337 
	C223.706726,226.618408 222.935303,229.528412 222.913132,232.444107 
	C222.825928,243.913422 222.887833,255.386047 223.087433,266.854065 
	C223.148590,270.367676 223.827194,273.870514 224.246597,277.587189 
	C218.491730,277.943420 211.891510,278.352020 205.291290,278.760590 
z"/>
<path fill="#2C2C2C" opacity="1.000000" stroke="none" 
	d="
M77.093979,278.733124 
	C71.352036,278.743134 65.610092,278.753113 59.589638,278.405823 
	C60.202457,275.967590 61.847130,273.893097 61.864990,271.804657 
	C61.998302,256.216461 61.809624,240.625488 61.892151,224.762573 
	C62.349659,223.915039 62.636894,223.340332 63.353088,222.746124 
	C65.497849,222.758408 67.213646,222.790161 69.283310,222.965378 
	C71.731468,224.498932 73.825760,225.889023 75.721634,227.342987 
	C75.273170,227.534714 75.044502,227.693390 74.634430,228.254166 
	C74.280960,234.761826 74.034775,240.898788 74.074776,247.033890 
	C74.081337,248.041183 75.346199,249.040268 76.017410,250.024719 
	C76.005295,250.006271 75.981102,249.969376 75.807991,250.311920 
	C75.233742,258.143707 74.737190,265.630676 74.558090,273.125214 
	C74.536858,274.013641 76.252136,274.943542 77.169624,276.215088 
	C77.149178,277.295013 77.121574,278.014069 77.093979,278.733124 
z"/>
<path fill="#505050" opacity="1.000000" stroke="none" 
	d="
M205.739517,278.781128 
	C211.891510,278.352020 218.491730,277.943420 224.246597,277.587189 
	C223.827194,273.870514 223.148590,270.367676 223.087433,266.854065 
	C222.887833,255.386047 222.825928,243.913422 222.913132,232.444107 
	C222.935303,229.528412 223.706726,226.618408 224.213303,223.164337 
	C220.719604,223.164337 216.414078,222.713104 212.251602,223.291519 
	C208.106522,223.867523 208.183884,227.517685 208.578476,230.755600 
	C209.191879,235.789276 210.359421,240.786102 210.580383,245.829742 
	C210.914734,253.461365 210.521454,261.121948 210.664215,268.765991 
	C210.747742,273.237762 209.016800,275.721375 203.989838,275.923218 
	C208.087189,273.303223 208.255249,269.031372 208.092590,264.421417 
	C207.872849,258.194000 208.037994,251.952988 208.037994,245.717819 
	C207.564941,245.640015 207.091873,245.562195 206.618820,245.484390 
	C203.843491,255.762894 201.068146,266.041412 197.784775,276.630585 
	C197.047760,276.925018 196.818787,276.908752 196.625351,276.476746 
	C197.945206,271.101135 199.380524,266.173187 200.439697,261.165619 
	C200.864990,259.154999 201.094437,256.699005 200.327515,254.911469 
	C197.335587,247.937881 193.060181,241.410873 190.859238,234.228378 
	C188.118469,225.284286 183.309723,221.220169 174.003479,222.675812 
	C174.009445,221.965530 174.013748,221.559677 174.018051,221.153809 
	C189.156784,220.897964 186.614563,219.538879 192.495926,232.838120 
	C194.730957,237.892059 196.974197,242.942368 199.213699,247.994339 
	C199.749390,247.943542 200.285080,247.892761 200.820770,247.841965 
	C202.374802,241.492050 204.058746,235.170410 205.448563,228.784760 
	C207.035980,221.491135 207.482986,221.000977 214.926971,220.995651 
	C218.417450,220.993164 221.921280,220.829681 225.391113,221.099152 
	C226.598206,221.192886 227.721176,222.369797 228.882568,223.052002 
	C228.246826,224.073776 227.529846,225.054871 226.993225,226.126297 
	C226.051849,228.005936 225.220978,229.940948 224.235031,232.691895 
	C224.141418,234.778717 224.156601,236.026382 224.171783,237.274063 
	C224.206146,247.229446 224.245987,257.184814 224.271362,267.140198 
	C224.278534,269.956055 223.840897,272.841614 227.544876,274.081726 
	C228.286346,274.329987 229.106049,276.485382 228.762222,277.262756 
	C228.379761,278.127533 226.715027,278.873596 225.596664,278.890564 
	C219.128967,278.988678 212.657761,278.856171 205.739517,278.781128 
z"/>
<path fill="#2C2C2C" opacity="1.000000" stroke="none" 
	d="
M120.300385,278.208893 
	C113.497368,278.437653 106.694344,278.666412 99.596504,278.564636 
	C100.490952,276.289124 102.702728,274.344452 102.703384,272.399048 
	C102.707649,259.857025 102.228622,247.314819 102.365349,234.789566 
	C106.820671,235.249420 110.818825,235.692383 114.822449,236.595505 
	C114.847931,247.785568 114.979668,258.517029 114.830048,269.244568 
	C114.774361,273.237366 115.878395,276.016022 120.088593,277.185608 
	C120.249855,277.652618 120.297058,277.926971 120.300385,278.208893 
z"/>
<path fill="#2C2C2C" opacity="1.000000" stroke="none" 
	d="
M337.455811,266.946655 
	C337.045197,265.802124 336.634583,264.657623 336.424316,263.220764 
	C336.624664,262.928406 337.014374,262.987335 337.026733,262.999878 
	C337.039124,263.012421 336.986877,263.014618 336.994690,262.555267 
	C337.041870,259.608429 336.714600,257.048309 337.190247,254.647278 
	C338.543701,247.815735 339.588257,240.604187 347.481445,237.781586 
	C350.266388,236.785706 352.593750,236.867691 351.695068,241.062057 
	C349.115051,253.103409 349.252411,265.071075 352.539215,276.882874 
	C348.412231,275.573456 344.669525,274.288971 340.926788,273.004486 
	C340.926788,273.004486 340.998566,272.992004 340.887390,272.757263 
	C340.495575,272.004272 340.214905,271.486084 339.934235,270.967865 
	C339.934235,270.967865 340.024536,270.980255 339.851440,270.831085 
	C339.432129,270.445526 339.185883,270.209137 338.939606,269.972778 
	C338.939606,269.972778 339.016418,269.989716 338.901245,269.694763 
	C338.342651,268.582123 337.899231,267.764374 337.455811,266.946655 
z"/>
<path fill="#2C2C2C" opacity="1.000000" stroke="none" 
	d="
M370.030548,273.301178 
	C369.600861,273.798462 369.171143,274.295746 368.161133,274.938782 
	C366.054993,275.655487 364.529114,276.226440 362.599854,276.799805 
	C360.852234,276.819824 359.508057,276.837433 358.217102,276.501099 
	C361.579468,265.199005 362.424866,254.182983 359.155884,242.689926 
	C358.990845,237.188660 360.742035,235.974960 365.106476,238.335693 
	C370.457520,241.230042 373.028778,246.210983 372.788300,251.883575 
	C372.484497,259.048859 371.003662,266.164276 370.030548,273.301178 
z"/>
<path fill="#444444" opacity="1.000000" stroke="none" 
	d="
M370.295349,273.066559 
	C371.003662,266.164276 372.484497,259.048859 372.788300,251.883575 
	C373.028778,246.210983 370.457520,241.230042 365.106476,238.335693 
	C360.742035,235.974960 358.990845,237.188660 358.909912,242.666824 
	C358.690033,243.008118 358.201141,242.974060 358.083618,242.674149 
	C357.245392,241.565598 356.524658,240.756958 355.803894,239.948334 
	C355.065216,240.930984 353.925446,241.813400 353.650848,242.912048 
	C351.319489,252.240097 351.348267,261.596893 353.920624,270.879028 
	C354.242859,272.041718 355.296234,273.001740 356.083374,274.364807 
	C356.442780,275.472015 356.729584,276.270172 357.134308,277.300262 
	C357.497498,277.991180 357.742798,278.450134 357.988098,278.909119 
	C356.920441,278.944458 355.852783,278.979797 354.266205,278.705139 
	C353.472656,277.899353 353.198059,277.403564 352.923462,276.907745 
	C349.252411,265.071075 349.115051,253.103409 351.695068,241.062057 
	C352.593750,236.867691 350.266388,236.785706 347.481445,237.781586 
	C339.588257,240.604187 338.543701,247.815735 337.190247,254.647278 
	C336.714600,257.048309 337.041870,259.608429 337.000427,262.547363 
	C336.998291,262.998810 337.014374,262.987335 337.014374,262.987335 
	C337.014374,262.987335 336.624664,262.928406 336.428528,262.909424 
	C336.530823,257.117340 336.099945,251.185913 337.310120,245.610687 
	C338.863831,238.452744 344.980011,234.335968 352.333344,233.950378 
	C368.736023,233.090271 375.678253,239.597198 375.904968,255.987396 
	C375.929962,257.793274 376.197205,259.595825 376.657227,262.070679 
	C376.912445,263.259918 376.862427,263.778381 376.812439,264.296844 
	C374.728333,267.141876 372.644257,269.986908 370.295349,273.066559 
M354.482849,236.471329 
	C354.482849,236.471329 354.498596,236.515549 354.482849,236.471329 
z"/>
<path fill="#505050" opacity="1.000000" stroke="none" 
	d="
M273.265106,276.792389 
	C277.354706,261.733551 276.590729,246.277267 276.938507,230.919678 
	C276.972687,229.408386 276.151794,227.877747 275.665283,226.002228 
	C276.318817,225.443115 277.034851,225.237885 278.033478,225.206421 
	C279.965088,228.606323 281.614136,231.832413 283.061035,235.271637 
	C282.572968,235.990982 282.287048,236.497208 282.001099,237.003448 
	C282.364532,244.404922 282.523651,251.823807 283.152161,259.202698 
	C283.713745,265.795563 285.335083,271.995209 292.563354,274.696167 
	C293.066925,274.884308 293.326996,275.724060 293.432220,276.516663 
	C287.110229,275.974213 283.618195,272.290497 282.422668,266.566010 
	C281.514221,262.216248 281.174744,257.746002 280.620850,253.324524 
	C280.345581,251.127335 280.157471,248.919220 279.929932,246.716064 
	C278.765717,254.032455 278.588409,261.313232 277.526276,268.462524 
	C277.091980,271.385620 274.743011,274.024323 273.265106,276.792389 
z"/>
<path fill="#505050" opacity="1.000000" stroke="none" 
	d="
M168.994141,271.992523 
	C168.325851,273.389038 167.657547,274.785583 166.618195,276.957458 
	C164.865341,274.936523 163.574631,273.712158 162.594528,272.275848 
	C155.977951,262.579529 148.486710,253.319366 143.180069,242.945358 
	C139.538406,235.826218 135.001801,233.837845 127.653709,234.285553 
	C131.051819,233.820465 134.828934,233.149918 138.604797,233.156815 
	C139.961823,233.159317 141.914871,234.485550 142.558914,235.740036 
	C144.485718,239.493118 145.899704,243.509491 147.540344,247.487198 
	C154.218933,244.009384 154.515915,242.148697 150.551819,237.494583 
	C148.632370,235.240997 149.453537,233.030991 152.202484,232.770386 
	C156.310898,232.380890 160.547623,232.419495 164.632141,232.983215 
	C168.179749,233.472824 168.758835,235.520020 165.296692,237.669678 
	C161.718292,232.088623 157.147598,235.897400 153.925095,235.078857 
	C154.692734,238.017059 155.301941,240.558029 156.037369,243.061951 
	C156.335602,244.077362 156.908752,245.012024 157.356812,245.983429 
	C156.118729,247.310471 154.636475,248.491531 153.725998,250.014435 
	C153.089340,251.079391 152.595245,253.013474 153.133774,253.870407 
	C156.731445,259.595093 160.596268,265.153839 164.472183,270.698059 
	C164.787018,271.148376 165.832565,271.087860 167.016815,271.165710 
	C167.994751,271.375336 168.494461,271.683929 168.994141,271.992523 
z"/>
<path fill="#444444" opacity="1.000000" stroke="none" 
	d="
M315.431458,231.301392 
	C316.277710,233.295685 317.804016,235.272522 317.855774,237.287247 
	C318.119659,247.558838 317.788605,257.846924 318.109863,268.115356 
	C318.267365,273.150482 316.403748,275.960693 311.188538,277.043152 
	C310.830536,276.854767 310.714600,276.328156 310.862579,276.238831 
	C317.776245,272.065552 315.874420,265.277008 315.950897,259.099457 
	C316.008087,254.482010 315.962189,249.863297 314.801178,244.993317 
	C311.879181,255.417160 308.957184,265.841003 305.734680,276.628479 
	C305.434113,276.992126 305.118073,277.024811 305.057800,276.590393 
	C306.100403,270.543304 307.105530,264.908936 308.345520,259.326752 
	C309.010040,256.335175 308.900787,253.793808 306.183533,251.705780 
	C306.530090,250.629089 306.756927,249.837494 306.983765,249.045898 
	C307.523651,248.815369 308.063538,248.584854 309.090820,247.933197 
	C311.529327,242.108490 313.480377,236.704941 315.431458,231.301392 
z"/>
<path fill="#343434" opacity="1.000000" stroke="none" 
	d="
M379.161438,315.496063 
	C375.155487,315.948425 371.155670,316.528320 367.137268,316.720490 
	C366.509583,316.750488 365.122192,314.902618 365.252991,314.117554 
	C365.622986,311.896576 366.598938,309.776520 367.785400,307.464874 
	C370.256622,308.756470 371.926361,311.597443 374.964661,309.009583 
	C375.118652,308.953369 375.381714,308.930908 375.411072,308.836121 
	C377.319458,302.673004 382.328003,302.884399 387.669067,303.546539 
	C388.007233,305.523834 387.996735,306.988007 387.957794,308.451416 
	C387.776184,315.276184 385.295776,316.813599 378.901367,313.949951 
	C378.665283,313.816528 378.523468,313.747620 378.381622,313.678711 
	C378.595551,313.778931 378.809479,313.879120 379.054260,314.231628 
	C379.110565,314.821289 379.136017,315.158661 379.161438,315.496063 
z"/>
<path fill="#505050" opacity="1.000000" stroke="none" 
	d="
M249.004440,238.005737 
	C252.072998,244.122528 255.141556,250.239334 258.416626,256.767792 
	C262.452667,249.848160 261.889038,240.965164 257.576263,236.926575 
	C257.736542,236.336060 257.989655,236.130432 258.562103,236.019012 
	C260.125275,237.545578 262.062927,238.808258 262.464233,240.447159 
	C263.225464,243.555878 263.154724,246.877533 263.331085,250.116119 
	C263.411316,251.589188 263.062073,253.438797 265.382843,251.037415 
	C266.068542,251.015457 266.460266,251.000717 266.851990,250.985992 
	C264.896179,256.738007 262.940369,262.490051 260.594604,268.617065 
	C260.026917,269.023041 259.849121,269.054016 259.728882,268.661194 
	C259.245880,265.725128 259.189972,262.968872 258.071625,260.747467 
	C255.036179,254.718063 251.427231,248.979218 248.320511,242.982773 
	C247.424225,241.252808 247.459198,239.040344 247.320877,237.144348 
	C248.051178,237.494980 248.527817,237.750366 249.004440,238.005737 
z"/>
<path fill="#3C3C3C" opacity="1.000000" stroke="none" 
	d="
M434.143433,264.107117 
	C431.249115,271.842072 428.752075,279.759674 425.311798,287.243652 
	C423.241791,291.746796 418.878632,293.963531 413.625061,292.812225 
	C408.557495,291.701721 405.634521,288.401703 404.614258,283.320404 
	C403.866516,279.596283 405.376740,277.581177 409.060181,277.076477 
	C409.705811,276.988007 410.364197,276.964050 411.016907,276.961548 
	C413.038910,276.953735 415.060974,276.970612 417.083038,276.977905 
	C416.767822,279.114594 416.452606,281.251251 415.638733,283.643158 
	C414.691589,283.807526 414.243042,283.716675 413.840302,283.334167 
	C414.467072,280.010529 413.126923,279.069763 410.290558,279.714203 
	C407.694214,280.304138 405.411377,281.829651 407.132874,284.422485 
	C408.683502,286.757904 411.615295,288.176361 414.313477,290.012482 
	C416.106506,289.295044 417.523987,288.564362 418.941467,287.833679 
	C418.941467,287.833679 418.958466,287.893311 419.271423,287.824188 
	C421.160858,285.758270 422.737366,283.761444 424.572083,281.594269 
	C427.165100,275.352783 429.499908,269.281647 432.123047,263.323181 
	C432.988708,263.659607 433.566071,263.883362 434.143433,264.107117 
z"/>
<path fill="#3C3C3C" opacity="1.000000" stroke="none" 
	d="
M249.298187,237.908127 
	C248.527817,237.750366 248.051178,237.494980 247.059586,236.874130 
	C242.855438,236.252899 239.159851,235.810318 235.483826,235.936829 
	C234.912994,235.956482 233.642105,238.887314 234.054474,239.938736 
	C235.382568,243.325058 237.380966,246.444260 239.058563,249.698578 
	C243.397049,258.114655 247.702133,266.547913 251.821167,275.173096 
	C251.358582,275.639496 251.095383,275.907166 250.832184,276.174805 
	C244.998215,265.449310 239.059769,254.778625 233.388443,243.967804 
	C231.471085,240.312912 228.917007,237.942368 224.518631,237.245758 
	C224.156601,236.026382 224.141418,234.778717 224.196579,233.066193 
	C231.937622,232.684723 239.609482,232.720078 247.277847,232.901886 
	C248.462494,232.929977 250.472977,233.431854 250.621460,234.062897 
	C250.881973,235.170059 249.997070,236.546738 249.298187,237.908127 
z"/>
<path fill="#484848" opacity="1.000000" stroke="none" 
	d="
M335.409485,278.695923 
	C329.234589,274.211304 330.516693,267.563812 330.395172,261.549561 
	C330.177429,250.771286 330.421631,239.979416 330.707245,229.199448 
	C330.754242,227.423386 331.996521,225.679001 333.131744,222.784515 
	C328.268707,222.784515 323.567108,222.784515 318.411011,222.559784 
	C317.956482,222.335052 317.997131,222.009109 317.997131,222.009094 
	C323.291748,221.884125 328.586029,221.718979 333.881317,221.675461 
	C334.720825,221.668579 336.199463,222.093216 336.278076,222.521225 
	C336.455841,223.489105 336.244598,225.259399 335.663696,225.518127 
	C331.608704,227.324326 332.325531,230.822983 332.321381,234.069183 
	C332.307556,244.853363 332.339874,255.637604 332.334503,266.421814 
	C332.332916,269.590027 332.046143,272.740997 335.755463,274.499054 
	C336.274200,274.744904 335.739166,277.214142 335.409485,278.695923 
z"/>
<path fill="#2C2C2C" opacity="1.000000" stroke="none" 
	d="
M273.430817,277.132568 
	C274.743011,274.024323 277.091980,271.385620 277.526276,268.462524 
	C278.588409,261.313232 278.765717,254.032455 279.929932,246.716064 
	C280.157471,248.919220 280.345581,251.127335 280.620850,253.324524 
	C281.174744,257.746002 281.514221,262.216248 282.422668,266.566010 
	C283.618195,272.290497 287.110229,275.974213 293.524628,276.832520 
	C293.332947,277.465576 292.759430,278.554779 292.231903,278.532928 
	C286.016113,278.275848 279.807220,277.852386 273.430817,277.132568 
z"/>
<path fill="#505050" opacity="1.000000" stroke="none" 
	d="
M185.889526,276.638489 
	C179.628525,276.077972 175.764618,272.432098 174.779816,266.179596 
	C173.629959,258.879181 172.868759,251.517593 171.936920,243.435089 
	C172.433914,240.312057 171.622421,238.967987 169.043915,239.014709 
	C168.827255,234.942001 168.610580,230.869278 168.368469,226.325226 
	C168.829102,225.581024 169.315155,225.308182 170.094833,225.219147 
	C172.132309,228.590485 173.876160,231.778000 175.405716,235.186035 
	C174.824524,236.345413 174.457626,237.284302 174.090729,238.223175 
	C174.524460,245.865250 174.718994,253.530991 175.471344,261.141571 
	C176.024399,266.735992 177.602570,272.021759 183.918793,274.119080 
	C184.705338,274.380249 185.188705,275.554474 185.889526,276.638489 
z"/>
<path fill="#3C3C3C" opacity="1.000000" stroke="none" 
	d="
M101.908188,234.772675 
	C102.228622,247.314819 102.707649,259.857025 102.703384,272.399048 
	C102.702728,274.344452 100.490952,276.289124 99.126259,278.524078 
	C96.006577,277.918488 96.671272,276.485291 97.951630,274.408722 
	C99.086784,272.567627 100.112442,270.319519 100.178474,268.219360 
	C100.423065,260.440887 100.407860,252.644089 100.148422,244.865570 
	C100.059509,242.199738 98.779488,239.592529 98.419220,236.908127 
	C98.261139,235.730209 99.043625,234.426086 99.878448,233.284454 
	C100.874641,233.850662 101.391418,234.311676 101.908188,234.772675 
z"/>
<path fill="#484848" opacity="1.000000" stroke="none" 
	d="
M306.922150,248.675232 
	C306.756927,249.837494 306.530090,250.629089 306.034943,251.381775 
	C302.385620,243.548798 299.208527,235.655273 295.487793,228.026901 
	C294.491913,225.985168 291.909210,223.523941 289.927979,223.406982 
	C285.914948,223.170074 281.815002,224.404694 277.750916,225.032623 
	C277.034851,225.237885 276.318817,225.443115 275.344818,225.756378 
	C271.690399,223.087540 273.375244,221.375839 276.547028,221.139999 
	C281.822540,220.747742 287.185699,220.675400 292.431885,221.228088 
	C294.193787,221.413712 296.391388,223.601898 297.222687,225.411087 
	C300.677856,232.930801 303.687439,240.655258 306.922150,248.675232 
z"/>
<path fill="#3C3C3C" opacity="1.000000" stroke="none" 
	d="
M259.671356,269.084961 
	C259.849121,269.054016 260.026917,269.023041 260.473389,268.959412 
	C258.266571,275.185486 256.195190,281.648346 253.173294,287.631134 
	C251.160782,291.615509 247.295242,293.934845 242.369171,292.824585 
	C237.939270,291.826172 234.440109,289.708710 233.038742,284.974915 
	C231.489014,279.739990 232.589706,278.161652 238.367538,278.336121 
	C236.472122,280.491394 233.935547,282.589935 236.154633,285.488098 
	C237.443817,287.171814 240.064301,287.836182 242.411377,289.099243 
	C248.510223,291.110168 250.270111,286.453369 253.010239,282.747925 
	C255.369736,277.991241 257.520538,273.538086 259.671356,269.084961 
z"/>
<path fill="#3C3C3C" opacity="1.000000" stroke="none" 
	d="
M61.721874,225.035385 
	C61.809624,240.625488 61.998302,256.216461 61.864990,271.804657 
	C61.847130,273.893097 60.202457,275.967590 59.122746,278.328979 
	C57.845711,278.081573 56.757057,277.553711 55.668404,277.025879 
	C56.240993,275.941284 56.814407,274.857147 57.385971,273.772034 
	C58.306122,272.025085 59.989243,270.291565 60.021797,268.527893 
	C60.250919,256.114471 60.296436,243.690720 59.976013,231.281219 
	C59.925720,229.333527 57.722198,227.441422 56.320786,224.983185 
	C56.390987,223.650528 56.654705,222.858337 57.233982,222.094391 
	C58.381142,222.264969 59.212734,222.407288 60.168015,222.832703 
	C60.768421,223.755661 61.245144,224.395523 61.721874,225.035385 
z"/>
<path fill="#343434" opacity="1.000000" stroke="none" 
	d="
M437.077271,316.821777 
	C435.362915,315.777435 433.648529,314.733093 431.567169,313.465179 
	C431.247925,313.737335 430.730988,314.317200 430.093536,314.692108 
	C428.808411,315.448029 427.110962,316.933563 426.222839,316.567444 
	C425.141205,316.121582 424.490692,314.144104 424.079041,312.707245 
	C423.728729,311.484497 424.061584,310.082336 423.952698,308.771118 
	C423.602753,304.558563 425.402344,302.604065 429.705261,302.941711 
	C431.834412,303.108765 433.984406,303.009949 436.547485,303.408539 
	C436.927887,304.239532 436.885742,304.693451 436.604187,305.344421 
	C431.943970,309.858002 432.005096,311.007141 436.960297,316.160400 
	C437.002625,316.380249 437.077271,316.821777 437.077271,316.821777 
z"/>
<path fill="#343434" opacity="1.000000" stroke="none" 
	d="
M438.861389,303.501404 
	C441.166199,303.372375 443.473511,303.276825 445.775299,303.106812 
	C449.724823,302.815125 452.885925,303.156708 450.386841,308.431183 
	C450.316650,308.579346 450.285950,308.746368 450.239044,308.905273 
	C449.476044,311.491180 453.983765,314.983765 449.451019,316.638824 
	C446.841156,317.591736 443.616272,316.860138 440.430542,316.491364 
	C444.680237,309.252716 444.641083,308.882324 438.861389,303.501404 
z"/>
<path fill="#3C3C3C" opacity="1.000000" stroke="none" 
	d="
M305.118073,277.024811 
	C305.118073,277.024811 305.434113,276.992126 305.592590,276.981140 
	C303.171326,279.918182 301.331818,279.081085 299.886078,275.865692 
	C294.123016,263.048126 288.341095,250.239075 282.283630,237.215149 
	C282.287048,236.497208 282.572968,235.990982 283.294434,235.474823 
	C284.806732,237.311005 286.050720,239.080994 286.931427,241.016327 
	C290.835205,249.594833 294.466888,258.301514 298.550659,266.791748 
	C300.294373,270.416992 302.902649,273.626434 305.118073,277.024811 
z"/>
<path fill="#343434" opacity="1.000000" stroke="none" 
	d="
M95.953735,221.096649 
	C96.417114,222.585449 97.414032,224.137878 97.245491,225.551331 
	C96.703629,230.095673 95.731483,234.588699 94.628403,239.392578 
	C92.907814,237.170502 91.722351,234.477631 89.997604,232.191650 
	C88.026405,229.578995 85.575539,227.328247 83.333099,224.920227 
	C83.333099,224.920227 83.178680,224.928970 83.087097,224.525848 
	C82.961555,223.635651 82.927589,223.148560 83.330307,222.640900 
	C87.567001,222.412460 91.367012,222.204605 95.300957,221.850143 
	C95.609306,221.502487 95.782249,221.300201 95.953735,221.096649 
z"/>
<path fill="#484848" opacity="1.000000" stroke="none" 
	d="
M120.614296,278.310486 
	C120.297058,277.926971 120.249855,277.652618 120.085205,277.204010 
	C120.011612,277.022217 119.974358,277.029480 120.174728,276.849701 
	C120.637077,276.207062 120.899048,275.744171 121.161026,275.281311 
	C125.460739,270.737854 129.940659,266.344727 133.940384,261.550964 
	C135.013763,260.264465 134.624344,257.757477 134.773468,255.485977 
	C139.472946,256.918610 141.441986,260.739746 142.014206,265.801697 
	C140.755600,265.626617 139.580246,265.157440 137.883072,264.844879 
	C137.011185,265.012817 136.661087,265.024139 136.132904,265.045502 
	C135.645798,265.205933 135.336792,265.356323 135.051361,265.537231 
	C135.074951,265.567688 135.111588,265.682281 134.785553,265.906067 
	C130.596451,270.338989 126.733391,274.548187 122.870338,278.757355 
	C122.222961,278.642273 121.575584,278.527191 120.614296,278.310486 
z"/>
<path fill="#343434" opacity="1.000000" stroke="none" 
	d="
M390.907532,303.271210 
	C394.658081,303.487427 398.408691,303.703613 402.525085,304.145599 
	C402.890900,304.371399 402.789551,304.771667 402.615692,304.936646 
	C402.211273,305.322754 401.985413,305.548553 401.545410,306.031067 
	C400.810211,307.268707 400.293884,308.254272 399.777557,309.239868 
	C399.080261,310.126312 398.223511,310.931641 397.721893,311.917633 
	C396.908936,313.515442 396.329010,315.231812 395.650726,316.898132 
	C394.290527,315.570862 392.776520,314.361908 391.629395,312.870728 
	C390.970032,312.013611 390.905182,310.699219 390.370880,308.968506 
	C390.415192,306.654602 390.661346,304.962921 390.907532,303.271210 
z"/>
<path fill="#444444" opacity="1.000000" stroke="none" 
	d="
M267.039124,250.689285 
	C266.460266,251.000717 266.068542,251.015457 265.448120,250.669891 
	C267.408234,245.426224 269.597046,240.542847 272.248505,234.627258 
	C267.226624,235.092560 262.734741,235.508774 258.242889,235.924988 
	C257.989655,236.130432 257.736542,236.336060 257.294312,236.696793 
	C254.498901,233.723511 256.858276,232.598465 259.304840,232.465698 
	C263.601837,232.232468 267.952209,232.374939 272.240479,232.780289 
	C275.671234,233.104568 276.272095,234.793381 274.247772,237.881638 
	C271.632294,241.871719 269.542450,246.206345 267.039124,250.689285 
z"/>
<path fill="#444444" opacity="1.000000" stroke="none" 
	d="
M395.720245,235.806656 
	C398.218445,235.212143 400.716675,234.617630 403.636505,233.988815 
	C408.471802,233.573853 412.881561,233.137100 417.300201,232.827362 
	C422.274536,232.478638 422.864166,233.415833 421.667145,238.107895 
	C421.323578,239.454559 421.951782,241.271683 422.636597,242.617599 
	C424.950928,247.166046 427.490753,251.599762 430.017334,256.482666 
	C430.090240,256.887970 430.049042,257.008820 429.712952,256.926331 
	C423.385437,250.913956 418.906769,244.221558 418.356140,234.944702 
	C412.997070,234.944702 407.402924,234.944702 401.562256,235.061371 
	C400.842468,235.461456 400.369263,235.744888 399.480286,236.011536 
	C397.949738,235.932037 396.834991,235.869339 395.720245,235.806656 
z"/>
<path fill="#2C2C2C" opacity="1.000000" stroke="none" 
	d="
M123.344658,278.811310 
	C126.733391,274.548187 130.596451,270.338989 134.773529,266.466431 
	C134.876099,273.982300 135.973785,275.662018 141.591156,276.755188 
	C140.119370,277.503418 138.679062,278.809631 137.169891,278.894745 
	C132.734238,279.144867 128.271255,278.910156 123.344658,278.811310 
z"/>
<path fill="#2C2C2C" opacity="1.000000" stroke="none" 
	d="
M432.143738,239.106201 
	C431.839355,238.684677 431.534943,238.263153 431.320007,237.331573 
	C435.206909,236.063217 439.004303,235.304901 442.801666,234.546585 
	C442.961426,235.070847 443.121216,235.595108 443.280975,236.119370 
	C441.567780,239.816956 439.854584,243.514542 438.276978,247.405945 
	C438.609222,247.852081 438.823212,248.088745 439.041748,248.633728 
	C439.031464,249.390274 439.033997,249.822784 439.036560,250.255310 
	C439.013031,250.461090 438.941498,250.648560 438.411438,250.935486 
	C435.266388,251.658310 435.427368,249.927872 435.039032,247.969574 
	C434.438751,244.942780 433.143982,242.053696 432.143738,239.106201 
z"/>
<path fill="#3C3C3C" opacity="1.000000" stroke="none" 
	d="
M196.589798,276.892456 
	C196.818787,276.908752 197.047760,276.925018 197.620529,276.960449 
	C196.076508,279.960022 193.662689,279.243103 192.580673,276.826355 
	C187.633331,265.776123 183.053299,254.561447 178.595886,242.877777 
	C178.850418,242.349731 178.981308,241.984451 179.194885,242.257523 
	C183.345337,251.066696 187.187561,259.648407 191.269119,268.114777 
	C192.748123,271.182648 194.799561,273.974609 196.589798,276.892456 
z"/>
<path fill="#444444" opacity="1.000000" stroke="none" 
	d="
M101.866653,222.912125 
	C100.260490,218.145081 101.965759,214.992340 106.081322,213.453644 
	C109.675812,212.109741 113.081429,212.999115 115.067871,216.559738 
	C117.043396,220.100815 116.060608,223.338440 113.038284,225.840256 
	C109.703957,228.600342 105.529778,227.542084 101.866653,222.912125 
M111.333481,224.773849 
	C113.936218,222.676788 114.678154,219.939362 112.363052,217.558533 
	C111.196587,216.358917 107.948326,215.480927 106.954201,216.220993 
	C105.513100,217.293808 104.419373,220.090057 104.694008,221.924103 
	C105.135406,224.871704 107.573402,226.148514 111.333481,224.773849 
z"/>
<path fill="#484848" opacity="1.000000" stroke="none" 
	d="
M395.344421,235.841873 
	C396.834991,235.869339 397.949738,235.932037 399.741577,236.144623 
	C400.955719,236.521317 401.492767,236.748123 402.024139,236.983765 
	C402.018433,236.992599 402.031097,236.974731 402.032440,237.301544 
	C402.024994,238.064026 402.016205,238.499695 402.007446,238.935349 
	C400.894012,238.593338 399.793152,238.200974 398.664825,237.918427 
	C394.738098,236.935043 392.778290,237.910065 392.963074,242.538635 
	C393.268585,250.191895 392.923523,257.869446 393.102478,265.530884 
	C393.136383,266.981476 394.331879,268.404938 395.427765,270.071594 
	C394.550720,271.532257 393.237335,272.762238 391.923950,273.992188 
	C391.736420,262.565552 391.432678,251.138016 391.522675,239.713562 
	C391.532806,238.425781 393.766174,237.155502 395.344421,235.841873 
z"/>
<path fill="#3C3C3C" opacity="1.000000" stroke="none" 
	d="
M438.141388,247.212128 
	C439.854584,243.514542 441.567780,239.816956 443.280975,236.119370 
	C443.121216,235.595108 442.961426,235.070847 442.801666,234.546585 
	C439.004303,235.304901 435.206909,236.063217 431.154907,237.129456 
	C430.072388,236.816284 429.244507,236.195190 428.022156,235.278152 
	C433.763519,231.376389 439.580444,232.135361 445.179535,232.895691 
	C448.087433,233.290573 447.802856,235.420242 446.276215,237.751556 
	C443.774872,241.571457 441.685638,245.661255 439.229553,249.946259 
	C439.033997,249.822784 439.031464,249.390274 438.893585,248.442841 
	C438.560913,247.682220 438.355286,247.443619 438.141388,247.212128 
z"/>
<path fill="#484848" opacity="1.000000" stroke="none" 
	d="
M168.899872,239.309891 
	C171.622421,238.967987 172.433914,240.312057 171.923492,243.021790 
	C171.291092,251.202896 170.690552,259.051575 170.030838,266.895325 
	C169.907654,268.359985 169.547180,269.804718 169.145203,271.625580 
	C168.494461,271.683929 167.994751,271.375336 167.312897,271.044312 
	C167.672455,260.549622 168.214127,250.077347 168.899872,239.309891 
z"/>
<path fill="#3C3C3C" opacity="1.000000" stroke="none" 
	d="
M402.244202,239.188904 
	C402.016205,238.499695 402.024994,238.064026 402.331726,237.454773 
	C405.435425,241.729889 408.517548,246.031311 410.985352,250.660233 
	C415.192841,258.552368 419.014526,266.650177 422.877808,274.831665 
	C422.757263,275.001709 422.489990,275.321625 422.489990,275.321625 
	C415.820312,263.361908 409.150665,251.402191 402.244202,239.188904 
z"/>
<path fill="#505050" opacity="1.000000" stroke="none" 
	d="
M120.014999,277.003845 
	C115.878395,276.016022 114.774361,273.237366 114.830048,269.244568 
	C114.979668,258.517029 114.847931,247.785568 115.023056,236.400696 
	C115.489059,235.491028 115.759926,235.236328 116.030785,234.981628 
	C116.305367,239.562531 116.716614,244.140274 116.822289,248.725067 
	C116.978424,255.498779 116.748978,262.285156 117.057098,269.049164 
	C117.143250,270.940308 118.542091,272.771637 119.600998,275.211853 
	C119.900269,276.205353 119.937317,276.617432 119.974358,277.029480 
	C119.974358,277.029480 120.011612,277.022217 120.014999,277.003845 
z"/>
<path fill="#2C2C2C" opacity="1.000000" stroke="none" 
	d="
M88.214455,243.981506 
	C88.435074,244.520981 88.655701,245.060471 88.769608,246.269012 
	C88.199051,250.462875 87.735214,253.987686 87.236603,257.776703 
	C85.073784,255.047546 83.489281,253.048141 81.904770,251.048737 
	C81.904770,251.048737 81.976753,251.033691 81.812103,250.803986 
	C79.758675,250.372635 77.869888,250.171005 75.981102,249.969376 
	C75.981102,249.969376 76.005295,250.006271 76.053215,249.734772 
	C76.152153,249.077698 76.203163,248.692154 76.511627,248.074677 
	C79.811478,244.265167 83.895561,243.775345 88.214455,243.981506 
z"/>
<path fill="#3C3C3C" opacity="1.000000" stroke="none" 
	d="
M391.948730,273.997009 
	C393.237335,272.762238 394.550720,271.532257 395.825928,270.040100 
	C397.194336,270.018127 398.600952,270.258423 400.007599,270.498718 
	C399.527618,271.782745 399.405090,273.770660 398.505127,274.227692 
	C394.810547,276.103943 390.984894,278.421265 387.010498,278.883728 
	C381.015900,279.581299 378.574463,276.758331 377.338135,269.362610 
	C377.808472,268.992554 377.984436,268.995850 378.160370,268.999115 
	C381.710907,277.107971 385.405060,278.902100 391.764343,274.991211 
	C391.994843,274.311646 391.989838,274.132629 391.984863,273.953613 
	C391.984863,273.953613 391.973572,274.001831 391.948730,273.997009 
z"/>
<path fill="#505050" opacity="1.000000" stroke="none" 
	d="
M432.230591,239.501648 
	C433.143982,242.053696 434.438751,244.942780 435.039032,247.969574 
	C435.427368,249.927872 435.266388,251.658310 438.292023,251.029083 
	C437.224915,255.168396 435.866699,259.331909 434.325958,263.801270 
	C433.566071,263.883362 432.988708,263.659607 431.887268,263.042480 
	C430.925171,260.768982 430.487122,258.888916 430.049042,257.008820 
	C430.049042,257.008820 430.090240,256.887970 430.087738,256.824158 
	C434.362152,251.606888 433.079803,245.717560 432.230591,239.501648 
M434.484192,255.002197 
	C434.484192,255.002197 434.534760,254.988571 434.484192,255.002197 
z"/>
<path fill="#505050" opacity="1.000000" stroke="none" 
	d="
M252.801559,283.051514 
	C250.270111,286.453369 248.510223,291.110168 242.341400,288.695129 
	C240.988586,284.552521 244.950134,280.600769 241.159622,277.205841 
	C242.537476,277.198486 243.915344,277.191132 245.293213,277.183746 
	C245.189987,278.716827 245.007858,280.249756 245.004333,281.783081 
	C245.000336,283.527069 245.155914,285.271423 245.242126,287.015625 
	C246.747620,285.769897 248.774292,284.800293 249.619690,283.204803 
	C250.564636,281.421387 250.438171,279.070282 250.805084,276.570496 
	C251.095383,275.907166 251.358582,275.639496 251.949371,275.546875 
	C252.451843,278.165100 252.626709,280.608307 252.801559,283.051514 
z"/>
<path fill="#484848" opacity="1.000000" stroke="none" 
	d="
M402.789551,304.771667 
	C402.789551,304.771667 402.890900,304.371399 402.938843,304.170593 
	C408.968323,301.942627 411.296661,302.860870 413.889313,308.983124 
	C413.586609,310.814362 413.308441,311.941559 413.030273,313.068756 
	C411.737305,316.733734 408.832092,317.384613 405.511719,316.860809 
	C401.705841,316.260437 400.037659,313.665375 399.767090,309.621826 
	C400.293884,308.254272 400.810211,307.268707 401.718903,306.159424 
	C402.111237,306.035706 402.458405,306.292084 402.360779,306.586975 
	C402.517334,308.420807 402.771515,309.959778 403.012695,311.499573 
	C402.999695,311.500397 403.009979,311.478363 403.100159,311.829712 
	C404.850494,313.133545 406.668823,315.016022 408.124756,314.768311 
	C409.490356,314.535980 411.432251,312.005188 411.364624,310.568359 
	C411.290955,309.002441 409.197388,307.531525 407.992188,306.009521 
	C408.000092,305.999847 407.999237,306.025574 407.690369,305.855194 
	C406.015167,305.614960 404.648804,305.545105 403.159363,305.299286 
	C403.036224,305.123322 402.789551,304.771667 402.789551,304.771667 
z"/>
<path fill="#2C2C2C" opacity="1.000000" stroke="none" 
	d="
M157.598343,245.854034 
	C156.908752,245.012024 156.335602,244.077362 156.037369,243.061951 
	C155.301941,240.558029 154.692734,238.017059 153.925095,235.078857 
	C157.147598,235.897400 161.718292,232.088623 164.965302,237.752594 
	C165.006271,238.057419 164.972641,237.979965 164.837677,238.199646 
	C164.463379,238.727341 164.224045,239.035339 163.984711,239.343353 
	C163.926865,239.574341 163.798264,239.754974 163.125305,240.085175 
	C161.771027,241.281494 160.890411,242.277908 160.009796,243.274353 
	C159.286499,244.091110 158.563187,244.907867 157.598343,245.854034 
z"/>
<path fill="#505050" opacity="1.000000" stroke="none" 
	d="
M75.807991,250.311920 
	C77.869888,250.171005 79.758675,250.372635 81.819611,250.839981 
	C77.404091,251.214218 75.522209,253.523911 75.968300,258.096741 
	C76.223717,260.715027 76.188789,263.392456 75.976158,266.018250 
	C75.665962,269.849030 76.227074,273.187347 79.629601,275.658264 
	C78.674423,275.935883 77.918442,275.895081 77.162460,275.854248 
	C76.252136,274.943542 74.536858,274.013641 74.558090,273.125214 
	C74.737190,265.630676 75.233742,258.143707 75.807991,250.311920 
z"/>
<path fill="#2C2C2C" opacity="1.000000" stroke="none" 
	d="
M240.864532,277.254272 
	C244.950134,280.600769 240.988586,284.552521 242.015747,288.555115 
	C240.064301,287.836182 237.443817,287.171814 236.154633,285.488098 
	C233.935547,282.589935 236.472122,280.491394 238.774536,278.374573 
	C239.511673,277.850403 240.040543,277.576569 240.864532,277.254272 
z"/>
<path fill="#505050" opacity="1.000000" stroke="none" 
	d="
M438.564026,303.417908 
	C444.641083,308.882324 444.680237,309.252716 440.037781,316.383453 
	C439.181580,316.712402 438.480438,316.753815 437.428284,316.808502 
	C437.077271,316.821777 437.002625,316.380249 436.982697,315.710754 
	C436.923035,311.743286 436.883301,308.445312 436.843567,305.147339 
	C436.885742,304.693451 436.927887,304.239532 437.011902,303.446320 
	C437.458069,303.182800 437.862366,303.258606 438.564026,303.417908 
z"/>
<path fill="#484848" opacity="1.000000" stroke="none" 
	d="
M81.885574,251.452835 
	C83.489281,253.048141 85.073784,255.047546 87.236603,257.776703 
	C87.735214,253.987686 88.199051,250.462875 88.758209,246.566284 
	C88.977745,250.470963 89.292107,254.754974 89.122482,259.019745 
	C89.063545,260.501770 87.806557,261.936157 87.096756,263.392303 
	C86.104691,262.239563 84.733559,261.237762 84.201462,259.901825 
	C83.173042,257.319794 82.617783,254.549301 81.885574,251.452835 
z"/>
<path fill="#505050" opacity="1.000000" stroke="none" 
	d="
M315.526367,230.867813 
	C313.480377,236.704941 311.529327,242.108490 309.326050,247.744339 
	C310.919983,240.160492 312.738342,232.337479 314.663666,224.540894 
	C314.822540,223.897598 315.707245,223.433548 316.623108,222.902313 
	C316.534760,225.423676 316.078003,227.928955 315.526367,230.867813 
z"/>
<path fill="#505050" opacity="1.000000" stroke="none" 
	d="
M95.167023,221.996750 
	C91.367012,222.204605 87.567001,222.412460 82.994682,222.554779 
	C80.785950,222.399216 79.349525,222.309204 77.521408,222.258423 
	C74.396294,222.472412 71.662865,222.647171 68.929443,222.821930 
	C67.213646,222.790161 65.497849,222.758408 62.994545,222.715759 
	C61.486137,222.653107 60.765236,222.601364 60.044331,222.549606 
	C59.212734,222.407288 58.381142,222.264969 57.262894,221.848495 
	C56.976238,221.574341 57.067467,221.088577 57.067467,221.088577 
	C69.388809,221.074753 81.710159,221.060944 94.548218,221.303192 
	C95.064926,221.559250 95.167023,221.996750 95.167023,221.996750 
z"/>
<path fill="#3C3C3C" opacity="1.000000" stroke="none" 
	d="
M83.448898,225.229126 
	C85.575539,227.328247 88.026405,229.578995 89.997604,232.191650 
	C91.722351,234.477631 92.907814,237.170502 94.623863,239.851196 
	C94.393326,240.813873 93.870438,241.608978 93.347565,242.404099 
	C92.341988,241.652359 90.919128,241.108810 90.418396,240.105194 
	C89.400192,238.064407 89.087265,235.676346 88.103714,233.612488 
	C86.778419,230.831543 85.094635,228.221451 83.448898,225.229126 
z"/>
<path fill="#343434" opacity="1.000000" stroke="none" 
	d="
M413.431213,313.072510 
	C413.308441,311.941559 413.586609,310.814362 413.931580,309.344910 
	C415.955139,309.018036 417.959198,308.786041 419.849701,309.147614 
	C420.875763,309.343903 421.708618,310.550507 422.628601,311.301422 
	C421.789032,312.144897 420.999207,313.632324 420.099854,313.701813 
	C418.039001,313.861023 415.924713,313.328125 413.431213,313.072510 
z"/>
<path fill="#3C3C3C" opacity="1.000000" stroke="none" 
	d="
M374.982178,308.688416 
	C371.926361,311.597443 370.256622,308.756470 368.009521,307.236267 
	C368.999725,305.770905 370.125488,303.315186 371.447998,303.204193 
	C374.731384,302.928650 375.332916,305.564362 374.982178,308.688416 
z"/>
<path fill="#484848" opacity="1.000000" stroke="none" 
	d="
M390.551788,303.275269 
	C390.661346,304.962921 390.415192,306.654602 390.106781,308.710205 
	C389.601166,316.481720 386.830597,318.351501 379.463989,315.753235 
	C379.136017,315.158661 379.110565,314.821289 379.045837,314.239960 
	C379.006500,313.996033 378.995575,314.014496 378.995575,314.014496 
	C385.295776,316.813599 387.776184,315.276184 387.957794,308.451416 
	C387.996735,306.988007 388.007233,305.523834 388.048706,303.618347 
	C388.776398,303.210876 389.486237,303.245087 390.551788,303.275269 
z"/>
<path fill="#484848" opacity="1.000000" stroke="none" 
	d="
M393.124023,231.426346 
	C392.509796,231.100525 391.309052,230.381973 391.277100,229.614716 
	C391.097504,225.306213 388.635498,224.080521 384.778534,223.916229 
	C381.724609,223.786133 378.693726,223.116272 375.390656,222.440369 
	C377.729370,222.421494 380.400360,223.143204 382.917816,222.785156 
	C391.481659,221.567200 392.913910,222.586761 393.124023,231.426346 
z"/>
<path fill="#505050" opacity="1.000000" stroke="none" 
	d="
M76.254173,248.306595 
	C76.203163,248.692154 76.152153,249.077698 76.065323,249.753204 
	C75.346199,249.040268 74.081337,248.041183 74.074776,247.033890 
	C74.034775,240.898788 74.280960,234.761826 74.845779,228.300110 
	C75.259903,227.974747 75.681183,228.064987 75.779266,228.058731 
	C75.877350,228.052475 76.062019,227.985138 76.062019,227.985138 
	C76.016228,233.029465 75.970436,238.073807 75.861183,243.883865 
	C75.949867,245.868591 76.102020,247.087601 76.254173,248.306595 
z"/>
<path fill="#484848" opacity="1.000000" stroke="none" 
	d="
M76.511627,248.074677 
	C76.102020,247.087601 75.949867,245.868591 75.842422,244.354141 
	C77.702950,243.269943 79.495750,241.914993 81.340607,241.839981 
	C83.504501,241.751984 85.713654,242.776993 88.058815,243.650391 
	C83.895561,243.775345 79.811478,244.265167 76.511627,248.074677 
z"/>
<path fill="#505050" opacity="1.000000" stroke="none" 
	d="
M141.488724,276.461548 
	C135.973785,275.662018 134.876099,273.982300 135.099579,266.242645 
	C135.111588,265.682281 135.074951,265.567688 135.379791,265.440125 
	C135.893417,265.220154 136.102219,265.127808 136.311005,265.035461 
	C136.661087,265.024139 137.011185,265.012817 137.623581,264.987000 
	C135.472107,269.823822 137.772903,273.201080 141.488724,276.461548 
z"/>
<path fill="#484848" opacity="1.000000" stroke="none" 
	d="
M115.824249,234.653198 
	C115.759926,235.236328 115.489059,235.491028 115.017593,235.940536 
	C110.818825,235.692383 106.820671,235.249420 102.365356,234.789566 
	C101.391418,234.311676 100.874641,233.850662 100.180328,233.196838 
	C105.207756,233.444290 110.412743,233.884521 115.824249,234.653198 
z"/>
<path fill="#505050" opacity="1.000000" stroke="none" 
	d="
M149.603073,278.897400 
	C160.471680,278.765350 171.798859,278.653137 183.490601,278.713501 
	C172.590637,278.896454 161.326157,278.906830 149.603073,278.897400 
z"/>
<path fill="#484848" opacity="1.000000" stroke="none" 
	d="
M169.801208,225.035339 
	C169.315155,225.308182 168.829102,225.581024 168.108231,226.004669 
	C167.030899,225.145828 166.188385,224.136185 165.345856,223.126541 
	C166.484711,222.419495 167.544876,221.403778 168.783478,221.087936 
	C170.157227,220.737640 171.693970,221.026474 173.588898,221.095413 
	C174.013748,221.559677 174.009445,221.965530 173.696732,222.802948 
	C172.192612,223.834778 170.996918,224.435059 169.801208,225.035339 
z"/>
<path fill="#505050" opacity="1.000000" stroke="none" 
	d="
M378.135742,268.530945 
	C377.984436,268.995850 377.808472,268.992554 377.368835,268.977234 
	C376.977966,267.668396 376.850769,266.371582 376.768005,264.685822 
	C376.862427,263.778381 376.912445,263.259918 376.971802,262.350891 
	C376.935028,253.998276 376.888885,246.036240 376.749512,237.624680 
	C377.160706,238.805374 378.076630,240.429520 378.100677,242.066772 
	C378.227783,250.730286 378.130524,259.397095 378.135742,268.530945 
z"/>
<path fill="#484848" opacity="1.000000" stroke="none" 
	d="
M352.539215,276.882874 
	C353.198059,277.403564 353.472656,277.899353 353.868500,278.650391 
	C349.125092,278.625275 344.438110,277.915894 341.080261,273.314758 
	C344.669525,274.288971 348.412231,275.573456 352.539215,276.882874 
z"/>
<path fill="#505050" opacity="1.000000" stroke="none" 
	d="
M424.313843,281.764648 
	C422.737366,283.761444 421.160858,285.758270 419.240479,287.822693 
	C420.155212,283.955170 421.413849,280.020020 422.581238,275.703247 
	C422.489990,275.321625 422.757263,275.001709 423.070374,275.208649 
	C423.693604,277.531952 424.003723,279.648285 424.313843,281.764648 
z"/>
<path fill="#505050" opacity="1.000000" stroke="none" 
	d="
M413.794525,283.625824 
	C414.243042,283.716675 414.691589,283.807526 415.474487,283.975983 
	C416.631165,285.228973 417.453491,286.404388 418.608643,287.706726 
	C417.523987,288.564362 416.106506,289.295044 414.160370,289.682312 
	C413.686005,287.434540 413.740265,285.530182 413.794525,283.625824 
z"/>
<path fill="#484848" opacity="1.000000" stroke="none" 
	d="
M174.412933,238.289261 
	C174.457626,237.284302 174.824524,236.345413 175.632935,235.468262 
	C177.043411,237.681473 178.012360,239.832962 178.981308,241.984451 
	C178.981308,241.984451 178.850418,242.349731 178.775787,242.532532 
	C177.379166,241.262009 176.057159,239.808670 174.412933,238.289261 
z"/>
<path fill="#343434" opacity="1.000000" stroke="none" 
	d="
M69.283310,222.965393 
	C71.662865,222.647171 74.396294,222.472412 77.542374,222.577454 
	C77.980721,223.503403 78.006401,224.149567 78.032074,224.795715 
	C77.490623,225.683258 76.949173,226.570816 76.234871,227.721741 
	C76.062019,227.985138 75.877350,228.052475 75.840897,227.862671 
	C75.804436,227.672882 75.920052,227.279114 75.920052,227.279114 
	C73.825760,225.889023 71.731468,224.498932 69.283310,222.965393 
z"/>
<path fill="#3C3C3C" opacity="1.000000" stroke="none" 
	d="
M78.447411,224.848511 
	C78.006401,224.149567 77.980721,223.503403 77.934067,222.538223 
	C79.349525,222.309204 80.785950,222.399216 82.557999,222.575348 
	C82.927589,223.148560 82.961555,223.635651 83.020935,224.485809 
	C81.651817,224.866379 80.257278,224.883850 78.447411,224.848511 
z"/>
<path fill="#3C3C3C" opacity="1.000000" stroke="none" 
	d="
M77.169617,276.215118 
	C77.918442,275.895081 78.674423,275.935883 79.809860,275.970032 
	C81.925026,279.159943 79.212105,278.427917 77.403412,278.750397 
	C77.121574,278.014069 77.149178,277.295013 77.169617,276.215118 
z"/>
<path fill="#484848" opacity="1.000000" stroke="none" 
	d="
M358.356293,278.916382 
	C357.742798,278.450134 357.497498,277.991180 357.421448,277.248474 
	C357.781738,276.928192 357.972778,276.891632 358.163849,276.855042 
	C359.508057,276.837433 360.852234,276.819824 362.595032,277.060547 
	C362.991455,277.491669 362.989258,277.664429 362.987030,277.837219 
	C361.566193,278.199371 360.145325,278.561523 358.356293,278.916382 
z"/>
<path fill="#444444" opacity="1.000000" stroke="none" 
	d="
M363.332062,277.830322 
	C362.989258,277.664429 362.991455,277.491669 362.998474,277.058167 
	C364.529114,276.226440 366.054993,275.655487 367.943115,275.058838 
	C366.762665,275.963226 365.219879,276.893341 363.332062,277.830322 
z"/>
<path fill="#505050" opacity="1.000000" stroke="none" 
	d="
M160.273193,243.073242 
	C160.890411,242.277908 161.771027,241.281494 162.967590,240.147186 
	C162.367889,240.963577 161.452240,241.917862 160.273193,243.073242 
z"/>
<path fill="#2C2C2C" opacity="1.000000" stroke="none" 
	d="
M56.791916,221.135834 
	C57.067467,221.088577 56.976238,221.574341 56.947327,221.820236 
	C56.654705,222.858337 56.390987,223.650528 56.044426,224.745911 
	C56.146507,223.760422 56.331436,222.471756 56.791916,221.135834 
z"/>
<path fill="#484848" opacity="1.000000" stroke="none" 
	d="
M337.529938,267.296082 
	C337.899231,267.764374 338.342651,268.582123 338.892822,269.733185 
	C338.534393,269.259521 338.069244,268.452515 337.529938,267.296082 
z"/>
<path fill="#505050" opacity="1.000000" stroke="none" 
	d="
M317.809387,221.887283 
	C317.997131,222.009109 317.956482,222.335052 317.943481,222.497192 
	C317.761017,222.714569 317.591522,222.769836 317.170258,222.915421 
	C317.152924,222.592331 317.387299,222.178894 317.809387,221.887283 
z"/>
<path fill="#484848" opacity="1.000000" stroke="none" 
	d="
M339.907776,271.286041 
	C340.214905,271.486084 340.495575,272.004272 340.893677,272.793152 
	C340.634521,272.577271 340.257935,272.090729 339.907776,271.286041 
z"/>
<path fill="#2C2C2C" opacity="1.000000" stroke="none" 
	d="
M120.174728,276.849701 
	C119.937317,276.617432 119.900269,276.205353 119.862701,275.483337 
	C120.078857,275.187531 120.295532,275.201691 120.836609,275.248596 
	C120.899048,275.744171 120.637077,276.207062 120.174728,276.849701 
z"/>
<path fill="#3C3C3C" opacity="1.000000" stroke="none" 
	d="
M95.300957,221.850143 
	C95.167023,221.996750 95.064926,221.559250 95.013153,221.340668 
	C94.961388,221.122086 95.456154,221.054245 95.704941,221.075439 
	C95.782249,221.300201 95.609306,221.502487 95.300957,221.850143 
z"/>
<path fill="#484848" opacity="1.000000" stroke="none" 
	d="
M339.018860,270.240509 
	C339.185883,270.209137 339.432129,270.445526 339.845276,270.876221 
	C339.707489,270.883118 339.402802,270.695679 339.018860,270.240509 
z"/>
<path fill="#505050" opacity="1.000000" stroke="none" 
	d="
M164.206955,239.144958 
	C164.224045,239.035339 164.463379,238.727341 164.876877,238.183990 
	C164.843765,238.281281 164.636475,238.613922 164.206955,239.144958 
z"/>
<path fill="#3C3C3C" opacity="1.000000" stroke="none" 
	d="
M428.524841,232.539673 
	C428.540955,232.528290 428.508759,232.551056 428.524841,232.539673 
z"/>
<path fill="#484848" opacity="1.000000" stroke="none" 
	d="
M391.932068,274.083954 
	C391.989838,274.132629 391.994843,274.311646 391.999207,274.759369 
	C391.859131,274.768585 391.819336,274.497314 391.932068,274.083954 
z"/>
<path fill="#343434" opacity="1.000000" stroke="none" 
	d="
M60.168015,222.832703 
	C60.765236,222.601364 61.486137,222.653107 62.565582,222.735229 
	C62.636894,223.340332 62.349659,223.915039 61.892147,224.762573 
	C61.245144,224.395523 60.768421,223.755661 60.168015,222.832703 
z"/>
<path fill="#484848" opacity="1.000000" stroke="none" 
	d="
M75.721634,227.342987 
	C75.920052,227.279114 75.804436,227.672882 75.742813,227.868927 
	C75.681183,228.064987 75.259903,227.974747 75.048553,227.928802 
	C75.044502,227.693390 75.273170,227.534714 75.721634,227.342987 
z"/>
<path fill="#2C2C2C" opacity="1.000000" stroke="none" 
	d="
M179.194885,242.257523 
	C178.012360,239.832962 177.043411,237.681473 175.847229,235.247742 
	C173.876160,231.778000 172.132309,228.590485 170.094833,225.219147 
	C170.996918,224.435059 172.192612,223.834778 173.695068,223.107361 
	C183.309723,221.220169 188.118469,225.284286 190.859238,234.228378 
	C193.060181,241.410873 197.335587,247.937881 200.327515,254.911469 
	C201.094437,256.699005 200.864990,259.154999 200.439697,261.165619 
	C199.380524,266.173187 197.945206,271.101135 196.625351,276.476746 
	C194.799561,273.974609 192.748123,271.182648 191.269119,268.114777 
	C187.187561,259.648407 183.345337,251.066696 179.194885,242.257523 
z"/>
<path fill="#444444" opacity="1.000000" stroke="none" 
	d="
M336.992584,263.006714 
	C336.986877,263.014618 337.039124,263.012421 337.026733,262.999878 
	C337.014374,262.987335 336.998291,262.998810 336.992584,263.006714 
z"/>
<path fill="#3C3C3C" opacity="1.000000" stroke="none" 
	d="
M358.217102,276.501099 
	C357.972778,276.891632 357.781738,276.928192 357.303558,277.016510 
	C356.729584,276.270172 356.442780,275.472015 356.243774,274.031738 
	C360.605347,263.475464 359.278931,253.217117 358.201141,242.974060 
	C358.201141,242.974060 358.690033,243.008118 358.936035,243.031219 
	C362.424866,254.182983 361.579468,265.199005 358.217102,276.501099 
z"/>
<path fill="#000000" opacity="1.000000" stroke="none" 
	d="
M358.083618,242.674149 
	C359.278931,253.217117 360.605347,263.475464 356.171204,273.722656 
	C355.296234,273.001740 354.242859,272.041718 353.920624,270.879028 
	C351.348267,261.596893 351.319489,252.240097 353.650848,242.912048 
	C353.925446,241.813400 355.065216,240.930984 355.803894,239.948334 
	C356.524658,240.756958 357.245392,241.565598 358.083618,242.674149 
z"/>
<path fill="#2C2C2C" opacity="1.000000" stroke="none" 
	d="
M354.490723,236.493439 
	C354.498596,236.515549 354.482849,236.471329 354.490723,236.493439 
z"/>
<path fill="#2C2C2C" opacity="1.000000" stroke="none" 
	d="
M305.057800,276.590393 
	C302.902649,273.626434 300.294373,270.416992 298.550659,266.791748 
	C294.466888,258.301514 290.835205,249.594833 286.931427,241.016327 
	C286.050720,239.080994 284.806732,237.311005 283.496582,235.261703 
	C281.614136,231.832413 279.965088,228.606323 278.033478,225.206421 
	C281.815002,224.404694 285.914948,223.170074 289.927979,223.406982 
	C291.909210,223.523941 294.491913,225.985168 295.487793,228.026901 
	C299.208527,235.655273 302.385620,243.548798 305.915222,251.666885 
	C308.900787,253.793808 309.010040,256.335175 308.345520,259.326752 
	C307.105530,264.908936 306.100403,270.543304 305.057800,276.590393 
z"/>
<path fill="#484848" opacity="1.000000" stroke="none" 
	d="
M379.014954,313.987671 
	C378.809479,313.879120 378.595551,313.778931 378.381622,313.678711 
	C378.523468,313.747620 378.665283,313.816528 378.901367,313.949951 
	C378.995575,314.014496 379.006500,313.996033 379.014954,313.987671 
z"/>
<path fill="#2C2C2C" opacity="1.000000" stroke="none" 
	d="
M253.010239,282.747925 
	C252.626709,280.608307 252.451843,278.165100 252.148773,275.348083 
	C247.702133,266.547913 243.397049,258.114655 239.058563,249.698578 
	C237.380966,246.444260 235.382568,243.325058 234.054474,239.938736 
	C233.642105,238.887314 234.912994,235.956482 235.483826,235.936829 
	C239.159851,235.810318 242.855438,236.252899 246.805908,236.778885 
	C247.459198,239.040344 247.424225,241.252808 248.320511,242.982773 
	C251.427231,248.979218 255.036179,254.718063 258.071625,260.747467 
	C259.189972,262.968872 259.245880,265.725128 259.728882,268.661194 
	C257.520538,273.538086 255.369736,277.991241 253.010239,282.747925 
z"/>
<path fill="#2C2C2C" opacity="1.000000" stroke="none" 
	d="
M258.562103,236.019012 
	C262.734741,235.508774 267.226624,235.092560 272.248505,234.627258 
	C269.597046,240.542847 267.408234,245.426224 265.154175,250.677124 
	C263.062073,253.438797 263.411316,251.589188 263.331085,250.116119 
	C263.154724,246.877533 263.225464,243.555878 262.464233,240.447159 
	C262.062927,238.808258 260.125275,237.545578 258.562103,236.019012 
z"/>
<path fill="#2C2C2C" opacity="1.000000" stroke="none" 
	d="
M424.572083,281.594269 
	C424.003723,279.648285 423.693604,277.531952 423.190918,275.038574 
	C419.014526,266.650177 415.192841,258.552368 410.985352,250.660233 
	C408.517548,246.031311 405.435425,241.729889 402.330383,237.127945 
	C402.031097,236.974731 402.018433,236.992599 401.979462,236.646622 
	C401.896606,235.848663 401.852722,235.396683 401.808807,234.944702 
	C407.402924,234.944702 412.997070,234.944702 418.356140,234.944702 
	C418.906769,244.221558 423.385437,250.913956 429.712952,256.926331 
	C430.487122,258.888916 430.925171,260.768982 431.598969,262.929810 
	C429.499908,269.281647 427.165100,275.352783 424.572083,281.594269 
z"/>
<path fill="#2C2C2C" opacity="1.000000" stroke="none" 
	d="
M413.840302,283.334167 
	C413.740265,285.530182 413.686005,287.434540 413.784790,289.669067 
	C411.615295,288.176361 408.683502,286.757904 407.132874,284.422485 
	C405.411377,281.829651 407.694214,280.304138 410.290558,279.714203 
	C413.126923,279.069763 414.467072,280.010529 413.840302,283.334167 
z"/>
<path fill="#2C2C2C" opacity="1.000000" stroke="none" 
	d="
M436.604187,305.344421 
	C436.883301,308.445312 436.923035,311.743286 436.940369,315.490906 
	C432.005096,311.007141 431.943970,309.858002 436.604187,305.344421 
z"/>
<path fill="#2C2C2C" opacity="1.000000" stroke="none" 
	d="
M136.132904,265.045502 
	C136.102219,265.127808 135.893417,265.220154 135.356201,265.409637 
	C135.336792,265.356323 135.645798,265.205933 136.132904,265.045502 
z"/>
<path fill="#484848" opacity="1.000000" stroke="none" 
	d="
M401.937744,305.907379 
	C401.985413,305.548553 402.211273,305.322754 402.615692,304.936646 
	C402.789551,304.771667 403.036224,305.123322 403.012878,305.424500 
	C402.803131,305.905762 402.626099,306.094574 402.458405,306.292084 
	C402.458405,306.292084 402.111237,306.035706 401.937744,305.907379 
z"/>
<path fill="#3C3C3C" opacity="1.000000" stroke="none" 
	d="
M401.562256,235.061371 
	C401.852722,235.396683 401.896606,235.848663 401.985168,236.637787 
	C401.492767,236.748123 400.955719,236.521317 400.157349,236.161423 
	C400.369263,235.744888 400.842468,235.461456 401.562256,235.061371 
z"/>
<path fill="#505050" opacity="1.000000" stroke="none" 
	d="
M438.276978,247.405945 
	C438.355286,247.443619 438.560913,247.682220 438.906433,248.118820 
	C438.823212,248.088745 438.609222,247.852081 438.276978,247.405945 
z"/>
<path fill="#2C2C2C" opacity="1.000000" stroke="none" 
	d="
M111.019394,224.944382 
	C107.573402,226.148514 105.135406,224.871704 104.694008,221.924103 
	C104.419373,220.090057 105.513100,217.293808 106.954201,216.220993 
	C107.948326,215.480927 111.196587,216.358917 112.363052,217.558533 
	C114.678154,219.939362 113.936218,222.676788 111.019394,224.944382 
z"/>
<path fill="#2C2C2C" opacity="1.000000" stroke="none" 
	d="
M434.509460,254.995392 
	C434.534760,254.988571 434.484192,255.002197 434.509460,254.995392 
z"/>
<path fill="#505050" opacity="1.000000" stroke="none" 
	d="
M403.009979,311.478363 
	C403.009979,311.478363 402.999695,311.500397 403.091217,311.122681 
	C404.788239,309.171814 406.393738,307.598694 407.999237,306.025574 
	C407.999237,306.025574 408.000092,305.999847 408.169861,306.304932 
	C408.479462,308.547302 408.619263,310.484528 408.759064,312.421783 
	C406.842712,312.107330 404.926331,311.792847 403.009979,311.478363 
z"/>
<path fill="#343434" opacity="1.000000" stroke="none" 
	d="
M403.100159,311.829712 
	C404.926331,311.792847 406.842712,312.107330 408.759064,312.421783 
	C408.619263,310.484528 408.479462,308.547302 408.161987,306.314636 
	C409.197388,307.531525 411.290955,309.002441 411.364624,310.568359 
	C411.432251,312.005188 409.490356,314.535980 408.124756,314.768311 
	C406.668823,315.016022 404.850494,313.133545 403.100159,311.829712 
z"/>
<path fill="#343434" opacity="1.000000" stroke="none" 
	d="
M407.690369,305.855194 
	C406.393738,307.598694 404.788239,309.171814 403.104187,311.121857 
	C402.771515,309.959778 402.517334,308.420807 402.360779,306.586975 
	C402.626099,306.094574 402.803131,305.905762 403.135986,305.600464 
	C404.648804,305.545105 406.015167,305.614960 407.690369,305.855194 
z"/>
</svg>